HIERARCHY
ROOT Hips
{
	OFFSET 0.000000 0.000000 0.000000 
	CHANNELS 6 Xposition Yposition Zposition Zrotation Yrotation Xrotation
	JOINT LeftUpLeg
	{
		OFFSET 1.363060 -1.794630 0.839290 
		CHANNELS 3 Zrotation Yrotation Xrotation
		JOINT LeftLeg
		{
			OFFSET 2.448110 -6.726130 0.000000 
			CHANNELS 3 Zrotation Yrotation Xrotation
			JOINT LeftFoot
			{
				OFFSET 2.562200 -7.039590 0.000000 
				CHANNELS 3 Zrotation Yrotation Xrotation
				JOINT LeftToeBase
				{
					OFFSET 0.157640 -0.433110 2.322550 
					CHANNELS 3 Zrotation Yrotation Xrotation
					End Site
					{
						OFFSET 0.000000 0.000000 0.000000 
					}
				}
			}
		}
	}
	JOINT RightUpLeg
	{
		OFFSET -1.305520 -1.794630 0.839290 
		CHANNELS 3 Zrotation Yrotation Xrotation
		JOINT RightLeg
		{
			OFFSET -2.542530 -6.985550 0.000000 
			CHANNELS 3 Zrotation Yrotation Xrotation
			JOINT RightFoot
			{
				OFFSET -2.568260 -7.056230 0.000000 
				CHANNELS 3 Zrotation Yrotation Xrotation
				JOINT RightToeBase
				{
					OFFSET -0.164730 -0.452590 2.363150 
					CHANNELS 3 Zrotation Yrotation Xrotation
					End Site
					{
						OFFSET 0.000000 0.000000 0.000000 
					}
				}
			}
		}
	}
	JOINT Spine
	{
		OFFSET 0.028270 2.035590 -0.193380 
		CHANNELS 3 Zrotation Yrotation Xrotation
		JOINT Spine1
		{
			OFFSET 0.056720 2.048850 -0.042750 
			CHANNELS 3 Zrotation Yrotation Xrotation
			JOINT Neck1
			{
				OFFSET -0.054170 1.746240 0.172020 
				CHANNELS 3 Zrotation Yrotation Xrotation
				JOINT Head
				{
					OFFSET 0.104070 1.761360 -0.123970 
					CHANNELS 3 Zrotation Yrotation Xrotation
					End Site
					{
						OFFSET 0.000000 0.000000 0.000000 
					}
				}
			}
			JOINT LeftArm
			{
				OFFSET 3.362410 1.200890 -0.311210 
				CHANNELS 3 Zrotation Yrotation Xrotation
				JOINT LeftForeArm
				{
					OFFSET 4.983000 -0.000000 -0.000000 
					CHANNELS 3 Zrotation Yrotation Xrotation
					JOINT LeftHand
					{
						OFFSET 3.483560 -0.000000 -0.000000 
						CHANNELS 3 Zrotation Yrotation Xrotation
						JOINT LeftHandIndex1
						{
							OFFSET 0.715260 -0.000000 -0.000000 
							CHANNELS 3 Zrotation Yrotation Xrotation
							End Site
							{
								OFFSET 0.000000 0.000000 0.000000 
							}
						}
					}
				}
			}
			JOINT RightArm
			{
				OFFSET -3.136600 1.374050 -0.404650 
				CHANNELS 3 Zrotation Yrotation Xrotation
				JOINT RightForeArm
				{
					OFFSET -5.241900 -0.000000 -0.000000 
					CHANNELS 3 Zrotation Yrotation Xrotation
					JOINT RightHand
					{
						OFFSET -3.444170 -0.000000 -0.000000 
						CHANNELS 3 Zrotation Yrotation Xrotation
						JOINT RightHandIndex1
						{
							OFFSET -0.622530 -0.000000 -0.000000 
							CHANNELS 3 Zrotation Yrotation Xrotation
							End Site
							{
								OFFSET 0.000000 0.000000 0.000000 
							}
						}
					}
				}
			}
		}
	}
}
MOTION
Frames: 12
Frame Time: 0.041667
0.668193 18.370625 9.752483 -11.096664 -0.945486 13.482424 -20.681421 -47.223573 22.888997 -3.911029 -2.586679 -3.383366 -14.262727 45.864424 -35.651148 0.539500 4.706300 13.072700 25.450605 30.020099 2.434531 3.616727 -0.168314 1.607170 7.782857 -24.946527 -4.156671 -0.542100 -4.717200 13.103600 22.754509 6.645606 -17.646196 -12.881005 -1.100099 -12.614733 17.415307 -19.435060 24.818893 2.400400 -7.934000 8.291200 -84.289084 12.495376 -7.349575 9.639953 -11.221197 -1.467218 -0.140666 1.881208 30.063892 -7.125000 0.000000 0.000000 78.667985 -10.323097 -15.401932 -10.399834 14.100822 -1.610251 0.927063 1.172254 53.176876 7.125000 0.000000 0.000000 
0.665879 18.364946 9.754691 -11.168333 -0.868120 13.720426 -20.451819 -47.227950 22.611367 -3.905711 -2.588158 -3.405413 -14.309754 45.897958 -35.544894 0.527600 4.654800 12.926700 25.390912 29.952977 2.162737 3.611901 -0.183930 1.562431 7.834232 -25.158298 -3.844276 -0.413500 -4.127900 11.436700 23.418964 6.875317 -18.432027 -12.992020 -1.135985 -12.243947 17.452250 -19.329771 24.643105 2.494000 -7.911700 8.254400 -84.671810 12.647789 -7.724502 9.660632 -11.225528 -1.477653 -0.109758 1.904993 30.309739 -7.125000 0.000000 0.000000 78.659323 -10.579116 -15.204784 -10.434325 14.150004 -1.626572 0.930464 1.177065 53.118638 7.125000 0.000000 0.000000 
0.663881 18.359371 9.755743 -11.247346 -0.792653 13.976694 -20.121032 -47.162079 22.223181 -3.895547 -2.583780 -3.422801 -14.381931 45.917751 -35.275949 0.504500 4.553100 12.638100 25.351771 29.887110 1.869827 3.606514 -0.207801 1.533731 7.887493 -25.383882 -3.529496 -0.293000 -3.480900 9.620500 23.957540 7.131610 -19.363933 -13.078557 -1.166447 -11.902640 17.430784 -19.232593 24.560157 2.576500 -7.894000 8.239600 -85.050438 12.852740 -8.014112 9.685072 -11.233077 -1.484960 -0.095185 1.911389 30.422357 -7.125000 0.000000 0.000000 78.644613 -10.857938 -15.038509 -10.435746 14.155505 -1.631399 0.929575 1.170750 53.071313 7.125000 0.000000 0.000000 
0.661462 18.353797 9.756900 -11.325870 -0.718015 14.248187 -19.804351 -47.200313 21.892601 -3.891910 -2.576136 -3.432523 -14.320030 45.831540 -35.309939 0.515000 4.599800 12.770400 25.323329 29.856105 1.579688 3.601277 -0.233576 1.514103 7.932340 -25.582478 -3.261050 -0.183300 -2.757500 7.604300 24.322667 7.381665 -20.334665 -13.140815 -1.187058 -11.570574 17.396427 -19.153051 24.537670 2.652900 -7.882700 8.238600 -85.390107 13.084099 -8.227455 9.713568 -11.247358 -1.492216 -0.086064 1.911010 30.459046 -7.125000 0.000000 0.000000 78.642144 -11.140398 -14.888304 -10.430758 14.149987 -1.634238 0.927313 1.168891 53.006568 7.125000 0.000000 0.000000 
0.654835 18.351904 9.761738 -10.914210 -0.757991 14.717503 -19.965465 -47.532218 21.593030 -3.893227 -2.542003 -3.407401 -14.145187 45.741158 -35.783265 0.565500 4.816200 13.385200 24.645361 29.696529 0.880480 3.588488 -0.331668 1.656919 7.948224 -25.640645 -2.850066 -0.105700 -2.096300 5.771900 23.825314 7.480862 -21.679521 -12.753359 -1.134935 -11.049786 17.508789 -19.081800 24.565608 2.747100 -7.857100 8.239800 -85.623056 13.537658 -7.389063 9.873184 -11.400518 -1.525868 -0.127829 1.875849 29.477146 -7.125000 0.000000 0.000000 78.507416 -11.352855 -14.764089 -10.284316 13.952963 -1.600645 0.938124 1.162587 52.979833 7.125000 0.000000 0.000000 
0.643266 18.350957 9.788348 -10.707619 -0.532630 15.750171 -19.406180 -48.141779 20.678132 -3.866963 -2.495561 -3.465772 -14.168503 45.859711 -35.998032 0.584100 4.893700 13.605600 24.031993 29.134861 -0.512845 3.566341 -0.467582 1.825841 7.920622 -25.676750 -2.063495 -0.010600 -0.665800 1.829700 23.264164 7.734288 -23.878728 -12.437806 -1.067858 -9.728641 17.773058 -19.073031 24.197119 2.894200 -7.873100 8.167700 -85.919680 14.307408 -4.955846 10.263508 -11.803230 -1.595722 -0.271894 1.687136 27.376913 -7.125000 0.000000 0.000000 78.429176 -11.609297 -14.831567 -10.031950 13.575912 -1.540157 0.965819 1.133366 52.928110 7.125000 0.000000 0.000000 
0.639690 18.354533 9.799812 -10.492912 -0.553909 15.957357 -19.587190 -48.395474 20.657719 -3.865361 -2.488141 -3.478438 -14.195716 45.988595 -36.231048 0.584300 4.894400 13.607700 23.683201 28.833909 -0.962916 3.554732 -0.547608 2.008474 7.854670 -25.476095 -1.847386 -0.000000 0.019200 -0.052600 22.904332 7.666190 -24.075212 -12.231352 -1.032317 -9.450216 17.786255 -19.117072 24.316583 2.877900 -7.880700 8.212800 -85.817599 14.394890 -4.632611 10.243997 -11.779585 -1.619146 -0.215773 1.810347 26.858607 -7.125000 0.000000 0.000000 78.325048 -11.480313 -14.986166 -9.885660 13.368159 -1.501826 0.980327 1.114715 52.987997 7.125000 0.000000 0.000000 
0.640005 18.353692 9.800654 -10.570766 -0.515432 15.973012 -19.497017 -48.393140 20.618965 -3.865635 -2.491168 -3.476514 -14.195242 45.978825 -36.222377 0.579900 4.876100 13.555500 23.726848 28.805323 -1.018793 3.552837 -0.565374 2.047697 7.834451 -25.421762 -1.877690 -0.000100 -0.073600 0.202200 23.245350 7.707584 -24.065329 -12.304865 -1.076982 -9.467651 17.643854 -19.028379 24.355846 2.870500 -7.850800 8.221900 -86.011680 14.486984 -3.936203 10.454024 -12.020825 -1.642218 -0.282962 1.635170 26.379635 -7.125000 0.000000 0.000000 78.287044 -11.489965 -14.900024 -9.867864 13.348923 -1.498893 0.984319 1.110033 52.962797 7.125000 0.000000 0.000000 
0.640216 18.353376 9.800759 -10.679729 -0.457157 15.994620 -19.414996 -48.463396 20.614376 -3.869810 -2.486518 -3.442608 -14.106743 45.881773 -36.360306 0.608900 4.994700 13.893500 23.771670 28.824847 -1.056583 3.553028 -0.569758 2.048161 7.815442 -25.371976 -1.940784 -0.001400 -0.240200 0.659900 23.843652 7.764317 -24.026523 -12.411755 -1.156951 -9.500849 17.501156 -18.891146 24.392885 2.885200 -7.801600 8.237200 -86.284094 14.539880 -3.933204 10.545930 -12.122339 -1.654143 -0.292248 1.566117 26.254856 -7.125000 0.000000 0.000000 78.195917 -11.521536 -14.637040 -9.848732 13.336707 -1.497575 0.987690 1.107209 52.924172 7.125000 0.000000 0.000000 
0.640321 18.352850 9.801811 -10.745001 -0.403303 15.993166 -19.432199 -48.503184 20.656663 -3.871989 -2.493189 -3.433347 -14.117266 45.895083 -36.373748 0.614900 5.018600 13.961600 23.769238 28.803086 -1.079607 3.552993 -0.569835 2.030266 7.810716 -25.374263 -1.905019 -0.004100 -0.414200 1.138200 24.569238 7.795772 -23.927792 -12.503201 -1.261330 -9.546678 17.407342 -18.728965 24.368147 2.927300 -7.744400 8.240600 -86.608705 14.549487 -4.366638 10.555015 -12.120848 -1.653095 -0.283189 1.560954 26.298886 -7.125000 0.000000 0.000000 78.041883 -11.565302 -14.265879 -9.821202 13.321102 -1.493791 0.986654 1.100785 52.920142 7.125000 0.000000 0.000000 
0.640426 18.352745 9.802757 -10.889453 -0.223153 16.106918 -19.447344 -48.472221 20.675661 -3.876923 -2.513879 -3.442465 -14.129202 45.886243 -36.317403 0.604400 4.976500 13.841600 23.751206 28.808244 -1.152241 3.555030 -0.599483 2.006744 7.810271 -25.432554 -1.912121 -0.008200 -0.586400 1.611500 26.634852 8.082418 -25.149505 -12.620447 -1.617778 -9.381127 17.650161 -17.896104 23.133260 3.377100 -7.487400 7.838200 -88.192993 15.487526 -5.612702 10.733579 -12.289680 -1.699056 -0.277406 1.556065 26.077654 -7.125000 0.000000 0.000000 77.554019 -12.470690 -12.789429 -9.741134 13.308296 -1.493500 0.979716 1.094669 52.717674 7.125000 0.000000 0.000000 
0.640952 18.352955 9.803388 -10.897065 -0.227468 16.089129 -19.460191 -48.466186 20.694421 -3.878638 -2.515231 -3.438280 -14.105329 45.860668 -36.350806 0.600500 4.960600 13.796100 23.760349 28.769673 -1.152862 3.554316 -0.598698 2.005185 7.804998 -25.424897 -1.862919 -0.006100 -0.502900 1.381900 26.692834 8.068037 -25.064167 -12.633772 -1.626345 -9.401854 17.621309 -17.876363 23.195693 3.370200 -7.475400 7.854300 -88.192388 15.466611 -5.641212 10.734533 -12.292289 -1.700890 -0.279864 1.563343 26.085812 -7.125000 0.000000 0.000000 77.568371 -12.400174 -12.990612 -9.747591 13.312737 -1.493991 0.977569 1.094118 52.887895 7.125000 0.000000 0.000000 
